<?xml version="1.0" encoding="UTF-8" standalone="no"?>
<svg viewBox="0 0 108 108" version="1.1" xmlns="http://www.w3.org/2000/svg" xmlns:xlink="http://www.w3.org/1999/xlink">
    <!-- Generator: Sketch 3.8.3 (29802) - http://www.bohemiancoding.com/sketch -->
    <title>Oxidation</title>
    <desc>Created with Sketch.</desc>
    <defs>
        <path d="M67.1123047,79.8334961 C84.7854167,79.8334961 84.7051962,42.6764356 82.4139253,38.2666167 C77.083522,28.0076314 66.360121,21 54,21 C43.0580388,21 33.3987605,26.4918181 27.6281687,34.8694507 C24.0782819,40.0231071 27.6281686,51.2566422 27.6281686,57.987793 C27.6281686,75.660905 49.4391927,79.8334961 67.1123047,79.8334961 Z" id="path-1"/>
        <mask id="mask-2" maskContentUnits="userSpaceOnUse" maskUnits="objectBoundingBox" x="0" y="0" width="57.4300878" height="58.8334961" fill="white">
            <use xlink:href="#path-1"/>
        </mask>
    </defs>
    <g id="Page-1" stroke="none" stroke-width="1" fill="none" fill-rule="evenodd">
        <g id="Oxidation">
            <use id="Oval-1-Copy" stroke="#000000" mask="url(#mask-2)" stroke-width="6" xlink:href="#path-1"/>
            <path d="M84.7812309,56.733551 C86.1162071,52.7378464 87.2660089,46.1545328 86.9110406,45.1210199 C86.9182849,45.1958771 85.8388917,44.4231572 85.4042368,41.9045731 C85.189324,40.6561475 84.8778213,39.4246251 84.4576548,38.2244944 C83.8974329,36.6283448 83.2140587,35.2809144 82.535514,34.1773738 C82.4848043,34.0904428 82.4340945,34.0035118 82.3833848,33.9165808 C82.158813,33.5398798 81.9373949,33.1769224 81.7000106,32.8492614 C79.0898438,29.2464542 76.5010529,27.7662131 76.5010529,27.7662131 C76.5010529,27.7662131 77.7207031,30.7460141 77.4516602,32.629519 C75.6481546,28.9075687 70.4570312,25.9799805 70.4570312,25.9799805 C70.4570312,25.9799805 75.1198158,32.2262559 76.8010254,37.7788086 C74.3914566,35.4630413 71.449398,34.0445623 71.449398,34.0445623 C71.449398,34.0445623 76.4769068,40.0548748 76.5372755,49.1488225 C76.5372755,49.791146 76.5276165,50.2885844 76.5010543,50.7980966 C75.9939568,49.6969707 75.1970894,48.1732636 74.4364432,47.0359164 C74.245678,46.750976 74.0573275,46.4925977 73.8762212,46.268026 C73.7192625,46.074846 73.5671333,45.9033988 73.424663,45.7730023 C74.236019,53.4301739 73.8617327,56.4075604 73.3594648,58.58325 C73.3111698,58.7836742 73.2652895,58.9792689 73.2169946,59.1700342 C73.1155751,59.5660531 73.0141556,59.9475836 72.9199803,60.3387731 C72.8861738,60.0465883 72.8354641,59.7761364 72.7750953,59.5225876 C72.6350398,58.9213149 72.4394451,58.4238765 72.2728274,58.0351018 C72.2172881,57.9095348 72.1641636,57.7887973 72.1206981,57.6873778 C72.1206981,57.6873778 72.0675736,59.0734442 71.4493977,61.3095025 C71.1451392,62.4057989 70.7080695,63.7025195 70.0705756,65.1417104 C68.9597907,67.6554649 67.8224435,68.8507661 67.0448941,69.2347113 C66.7937601,69.3578636 66.5812621,69.3964995 66.4194739,69.3675226 C66.2383676,69.3554488 66.1393629,69.2757621 66.1417776,69.2685178 C66.1610956,69.0874116 66.1804136,68.9063053 66.1876579,68.7324434 C66.1973169,68.4909684 66.1852431,68.2688114 66.1224597,68.1021937 C66.1224597,68.1021937 65.501869,68.3219359 65.1034352,68.9014758 C64.941647,69.1332918 64.7339785,69.3626931 64.4611118,69.575191 C64.4128168,69.613827 64.903011,68.9304528 64.8667898,68.9618446 C64.6253148,69.1646836 64.3669365,69.3989143 64.1085583,69.6766105 C63.8308621,69.9736247 63.5628249,70.2778832 63.3092761,70.5555795 C62.6935149,71.2268799 62.171929,71.7291479 61.8555968,71.5021614 C62.0608505,71.4393779 62.2443715,71.2727601 62.3868417,71.0602622 C62.538971,70.8381052 62.6476347,70.5652384 62.6935149,70.2923717 C62.3192287,70.5628237 61.3726468,71.2920781 59.247667,71.6180694 C58.8540628,71.6784381 57.8833333,71.8523001 56.4827785,71.7919313 C54.7852094,71.7170741 52.4573906,71.2969076 49.7649445,69.9084265 C50.3275812,69.8408135 51.1123749,69.6669515 51.8198966,69.8383988 C52.0106618,69.884279 52.1965976,69.9543068 52.3704596,70.0629705 C52.2931876,69.9760395 52.2038418,69.9011823 52.1072518,69.8335693 C51.1848174,69.1743426 49.4437828,69.2878358 48.1615507,68.8700841 C46.9276135,68.4668209 45.3169754,66.6823208 44.3897115,65.7792044 C44.7374355,65.8661353 45.0851594,65.9361631 45.4328834,65.9965318 C45.6767731,66.0375826 45.9182481,66.0738038 46.1597231,66.1027808 C46.5364241,66.1486611 46.913125,66.1824676 47.2874112,66.1993708 C50.1054243,66.3225231 52.7833818,65.6294899 54.5171721,64.4076265 C56.8643089,62.7511081 58.2552048,61.5413185 59.5036305,61.8262589 C59.624368,61.8552359 59.7402759,61.8648949 59.8513544,61.8648949 C60.6844431,61.7803787 61.1335866,61.188765 61.0104343,60.4909023 C60.9645541,60.2276946 60.8389871,59.9499983 60.6095859,59.6771316 C59.9455297,58.8899232 58.629491,57.916779 56.8377467,57.6511565 C56.0191465,57.5304191 55.1039563,57.5569813 54.1042499,57.8153595 C52.2762843,58.2862357 50.648743,59.5394909 48.5068599,59.5491499 C47.7872645,59.5539794 47.009715,59.4163386 46.1452346,59.0637852 C45.9351514,58.9792689 45.7226534,58.8802642 45.5029111,58.7691857 C45.2831689,58.6556925 46.2200918,58.9019969 45.9882759,58.7619414 C45.3290492,58.5108075 44.1289185,57.9433413 43.8319043,57.7284285 C43.7836093,57.6922073 44.3293427,57.829848 44.2713888,57.7936268 C41.0138913,55.8062877 41.2263893,54.2149676 41.2263893,53.2321644 C41.2263893,52.8337307 41.344712,52.367684 41.5741132,51.9378585 C41.798685,51.5128626 42.1295057,51.1265026 42.5617459,50.8801981 C42.8346126,50.9792029 43.0446959,51.0733781 43.1750923,51.1361616 C43.1678481,50.9719586 43.0519401,50.8005114 42.9674239,50.6990919 C43.2934151,50.7473869 43.6894341,50.8971014 44.066135,51.0516454 C44.3245132,51.1578943 44.5732325,51.2665581 44.7495092,51.3583186 C45.3435377,51.6649918 45.5415471,51.9789093 45.5415471,51.9789093 C45.5415471,51.9789093 45.6816026,51.8895635 45.5367176,51.5756461 C45.5101554,51.5201068 45.4546162,51.4162726 45.3556114,51.2882908 C45.2252149,51.1216731 45.0151317,50.9091751 44.6794815,50.6990919 C45.0175464,50.8222441 45.3435377,50.9816176 45.7033354,51.1917008 C45.7202386,51.1071846 45.7419714,51.0226684 45.7612894,50.9357374 C45.8023401,50.7715344 45.8192434,50.6966771 45.8361466,50.6218199 C45.8651236,50.4938381 45.8892711,50.3586122 45.9085891,50.2137272 C45.9472251,49.9070539 45.9568841,49.5569152 45.8892711,49.1174308 C45.7806074,48.4292271 45.7950959,48.2529503 45.6284781,48.0018164 C45.4860079,47.7893184 45.6671141,47.6951431 45.8892711,47.8859084 C45.8361466,47.7168759 45.7612894,47.5478434 45.6719436,47.3763962 C45.6936764,47.2749767 45.7757779,47.1566539 45.9013449,47.0238427 C46.0462299,46.876543 46.0848658,46.8427365 46.1283313,46.8041005 C47.3840012,45.6933156 50.8201902,43.8242992 51.1244487,43.5924832 C51.6315461,43.2061233 52.1483026,42.6072653 52.4718791,41.9190616 C52.5732985,41.7307111 52.6602295,41.5037247 52.7254278,41.2381022 C52.809944,40.8879635 52.8558243,40.467797 52.829262,39.95587 C52.809944,39.5381183 52.6433263,39.2242009 51.1461814,39.0648274 C50.3420697,38.9803111 49.1515981,38.9392604 47.3912455,38.9513341 C45.7685336,38.9634079 44.838855,38.1061717 44.278633,37.2899863 C44.162725,37.1112948 44.0637203,36.9422623 43.9719598,36.7901331 C43.8488075,36.5631466 43.766706,36.3603076 43.7015078,36.1985194 C43.901932,35.4475322 44.1699693,34.7279367 44.50079,34.0445625 C45.2034822,32.5981274 46.2056033,31.3062363 47.5288862,30.1906219 C47.647209,30.0867876 47.0628395,30.2582349 47.173918,30.1519859 C47.3067292,30.0240041 48.1325737,29.6159114 48.2871177,29.5265657 C48.3812929,29.4710264 48.1881129,29.3768512 47.8621217,29.3092382 C47.434711,29.2319662 46.9203693,29.205404 46.4494931,29.3068234 C45.5053259,29.5072477 45.3218049,29.6231557 44.8340255,29.8815339 C45.0320349,29.6714507 45.6719436,29.3382152 45.5149849,29.3720217 C44.491131,29.6086672 43.2837561,30.3041151 42.2550727,31.0551023 C42.2454137,30.9585123 42.2550727,30.8812403 42.2743907,30.7291111 C41.789026,30.9874893 40.6178723,31.9195827 40.3184433,32.6295192 C40.3184433,32.4749752 40.3184433,32.3977032 40.2991253,32.2262559 C39.9948669,32.5160259 39.7002674,32.8540909 39.4298154,33.2283771 C38.526699,33.1342019 37.7443201,32.9965611 36.9933329,32.9192891 C35.1798558,32.7285239 33.5523144,32.8927269 32.1058793,33.2935754 C31.9102845,33.3491146 31.7171046,33.4046538 31.5287541,33.4674373 C31.0119976,33.0786626 30.1813237,32.4846342 28.8701146,30.3958756 C28.7904278,30.2703086 28.7831836,30.6832308 28.7107411,30.5504196 C28.3292106,29.8404831 27.9887309,28.7586752 27.8221131,27.7734573 C27.7641592,27.4305629 27.7255232,27.0997421 27.7158642,26.8003132 C27.7158642,26.8003132 27.3198452,27.0393734 26.8924345,27.7662131 C26.7306462,28.0414946 26.5640285,28.3868038 26.414314,28.8166292 C26.3829223,28.905975 26.3515305,28.9977355 26.3225535,29.0943255 C26.2235488,29.4106577 26.1559358,29.5990082 26.085908,29.7728702 C26.0641753,29.8259947 26.1269588,29.1981597 26.1028113,29.2464547 C26.0641753,29.3309709 25.9965623,29.4323904 25.9241198,29.5482984 C25.8251151,29.7052572 25.7140366,29.8911929 25.6440088,30.0892024 C25.5281008,30.5311016 25.4097781,30.7146226 25.3614831,31.0913235 C25.3373356,30.8160421 25.3276766,30.7025488 25.3107734,30.7460143 C25.0692984,31.4076558 24.8423119,32.168302 24.6587909,33.0255381 C24.3931684,34.3802128 24.1227165,36.2323259 24.2845047,38.5818774 C24.2820899,38.6663937 24.2893342,38.7509099 24.2941637,38.8330114 C24.3014079,38.9344309 24.3086522,39.0334356 24.3062374,39.1276109 C23.4828078,40.2963498 22.9467333,41.3008857 22.7390648,41.7959094 C22.5289816,42.2160759 22.3188984,42.6869521 22.1112299,43.208538 C21.3167772,45.1838033 20.536813,47.9173001 19.8800011,51.73019 C19.8800011,51.73019 20.4378083,49.9142982 21.5510079,47.8593461 C20.729993,50.4479579 20.0876696,54.4757606 20.4643705,60.5174646 C20.4740295,60.3846533 20.5537163,59.6698874 20.7324077,58.6049827 C20.8241682,58.061664 20.9400762,57.4289996 21.0897907,56.7335516 C21.097035,56.8905104 21.106694,57.0474691 21.1187677,57.2068426 C21.154989,57.771894 21.2081135,58.3538487 21.2781412,58.9502919 C21.3191919,59.3028454 21.3674869,59.6602284 21.4206114,60.0248556 C21.9204646,63.3306481 23.0095168,67.0710955 25.2600636,71.0433589 C27.5709792,75.1267008 33.6609782,84.611838 48.9439296,88.1615202 C48.5116894,88.0335385 48.1229147,87.8717502 47.782435,87.7027177 C46.7996318,87.2149383 46.2249213,86.6643753 46.2249213,86.6643753 C46.2249213,86.6643753 46.710286,86.8237488 47.4999092,87.0483206 C49.1274506,87.5095378 52.0468831,88.2363775 54.6982784,88.3788477 C55.1763988,88.4029952 55.647275,88.4126542 56.0988333,88.3933362 C54.7948684,88.1615202 54.5340754,87.5119525 54.5340754,87.5119525 C54.5340754,87.5119525 66.3977411,88.202571 72.5601826,83.1798914 C72.6809201,83.0808866 72.8016576,82.9794671 72.9199803,82.8756329 C73.868977,82.073936 74.5426922,81.2094555 74.9024899,80.3739521 C74.6151347,80.5164224 74.3301942,80.6492336 74.052498,80.7748006 C73.1397226,81.764848 72.0265229,82.5737892 70.7974153,83.2354306 C69.6745566,83.5638366 72.6229661,81.0500821 74.7286279,79.9417119 C74.8686834,79.8692694 74.9942504,79.7992417 75.1198174,79.7316287 C76.938124,78.734337 78.8989008,77.3724181 80.9128021,75.327125 C82.8301135,73.3808367 83.7694512,71.7001709 84.2910371,70.1668047 C84.4359221,69.7369793 84.5494153,69.3192276 84.6411758,68.9111348 C84.7957198,68.2277606 84.8947246,67.568534 84.9937293,66.921381 C84.9744113,67.017971 82.2481588,71.4321336 79.8261647,72.9123753 C79.3770213,73.185242 78.9158041,73.4508645 78.4545869,73.7140722 C82.3833847,68.9111366 83.4096534,66.9551875 84.2379126,65.4387246 C84.3610649,65.2141529 84.4914613,64.9606042 84.6266873,64.6829079 C84.6773971,64.5790737 84.7305216,64.4728247 84.7812313,64.3593315 C85.6843477,62.5458544 86.6188559,60.0707358 87.2225434,57.3010178 C87.4929953,56.0598364 87.6958343,54.7582863 87.8020833,53.4301739 C87.8200482,53.2001357 87.8350713,52.9693025 87.8469795,52.7378473 C87.9006975,51.6937496 87.8910295,50.6369956 87.8020833,49.5834775 C87.7658621,49.1560668 86.9110374,53.4301758 84.7812309,56.733551 Z" id="Shape-Copy" fill="#000000"/>
            <path d="M70.147091,89.3321672 C65.1923926,91.6113655 59.6780076,92.8823776 53.8667618,92.8823776 C47.701686,92.8823776 41.8707216,91.4518771 36.6876847,88.9046924 C36.7614881,88.6361599 36.770918,88.2869658 36.7039117,87.8639048 L35.6084905,80.9476876 C35.3493535,79.3115608 33.8133047,78.1958513 32.1775115,78.4549355 L25.2612943,79.5503566 C25.0252358,79.5877446 24.8182186,79.6405147 24.6407951,79.7063696 C18.5584418,72.8279482 14.8667618,63.7862819 14.8667618,53.8823776 C14.8667618,52.3865403 14.9509749,50.9103722 15.1149188,49.4583554 C15.3712265,49.4285549 15.6703849,49.3314533 16.0054956,49.1607059 L22.2447053,45.9816698 C23.7206767,45.2296248 24.3071143,43.4239824 23.5552227,41.948312 L20.3761866,35.7091023 C20.1923695,35.348341 19.9923228,35.08049 19.7874987,34.904653 C25.28342,25.0564531 34.9244185,17.8368695 46.3503417,15.6060546 C46.4753373,15.8162188 46.6282528,16.0143947 46.8090854,16.1952274 L51.7605502,21.1466922 C52.9318877,22.3180297 54.8303749,22.3177908 56.0014736,21.1466922 L60.9529384,16.1952274 C61.132348,16.0158178 61.2842724,15.8193493 61.4087143,15.6110485 C72.8671217,17.8561811 82.5278355,25.1190575 88.0088522,35.0176746 C87.7453253,35.176449 87.484498,35.4841948 87.2503722,35.9436926 L84.0713361,42.1829022 C83.3192912,43.6588736 83.9061831,45.4643684 85.3818535,46.21626 L91.6210632,49.3952961 C92.0161427,49.5965992 92.3614736,49.6963146 92.6455792,49.7042357 C92.7917789,51.0769258 92.8667618,52.4708951 92.8667618,53.8823776 C92.8667618,64.1295366 88.9147509,73.4536541 82.4517513,80.4137077 C82.2571235,80.3270996 82.020918,80.257438 81.7438426,80.2085822 L74.8477965,78.9926232 C73.2164414,78.7049713 71.6614288,79.7940945 71.3738355,81.4251169 L70.1578765,88.321163 C70.0862941,88.727127 70.0861061,89.0663011 70.147091,89.3321672 Z M101.103762,49.8783776 L100.978762,48.5983776 L104.754762,45.0763776 C105.522762,44.3603776 105.235762,42.9193776 104.253762,42.5533776 L99.4267618,40.7483776 L99.0487618,39.5023776 L102.059762,35.3203776 C102.673762,34.4703776 102.109762,33.1133776 101.075762,32.9433776 L95.9857618,32.1153776 L95.3737618,30.9723776 L97.5127618,26.2773776 C97.9507618,25.3213776 97.1367618,24.0983776 96.0847618,24.1383776 L90.9187618,24.3183776 L90.1027618,23.3283776 L91.2897618,18.2963776 C91.5297618,17.2743776 90.4927618,16.2363776 89.4707618,16.4763776 L84.4397618,17.6623776 L83.4477618,16.8463776 L83.6287618,11.6803776 C83.6687618,10.6343776 82.4447618,9.81737756 81.4907618,10.2513776 L76.7967618,12.3913776 L75.6537618,11.7783776 L74.8237618,6.68737756 C74.6557618,5.65537756 73.2977618,5.09137756 72.4477618,5.70337756 L68.2627618,8.71437756 L67.0187618,8.33737756 L65.2137618,3.50937756 C64.8477618,2.52537756 63.4057618,2.24237756 62.6917618,3.00637756 L59.1697618,6.78537756 L57.8897618,6.66037756 L55.1697618,2.26537756 C54.6197618,1.37537756 53.1467618,1.37537756 52.5987618,2.26537756 L49.8787618,6.66037756 L48.5977618,6.78537756 L45.0747618,3.00637756 C44.3607618,2.24237756 42.9187618,2.52537756 42.5527618,3.50937756 L40.7477618,8.33737756 L39.5027618,8.71437756 L35.3187618,5.70337756 C34.4687618,5.08937756 33.1097618,5.65537756 32.9417618,6.68737756 L32.1117618,11.7783776 L30.9687618,12.3913776 L26.2747618,10.2513776 C25.3207618,9.81537756 24.0967618,10.6343776 24.1367618,11.6803776 L24.3167618,16.8463776 L23.3247618,17.6623776 L18.2937618,16.4763776 C17.2717618,16.2383776 16.2337618,17.2743776 16.4737618,18.2963776 L17.6587618,23.3283776 L16.8447618,24.3183776 L11.6787618,24.1383776 C10.6367618,24.1083776 9.8157618,25.3213776 10.2497618,26.2773776 L12.3897618,30.9723776 L11.7767618,32.1153776 L6.6867618,32.9433776 C5.6527618,33.1113776 5.0927618,34.4703776 5.7027618,35.3203776 L8.7137618,39.5023776 L8.3357618,40.7483776 L3.5077618,42.5533776 C2.5277618,42.9193776 2.2407618,44.3603776 3.0067618,45.0763776 L6.7837618,48.5983776 L6.6587618,49.8783776 L2.2647618,52.5983776 C1.3747618,53.1483776 1.3747618,54.6213776 2.2647618,55.1693776 L6.6587618,57.8893776 L6.7837618,59.1693776 L3.0067618,62.6923776 C2.2407618,63.4063776 2.5277618,64.8463776 3.5077618,65.2143776 L8.3357618,67.0193776 L8.7137618,68.2653776 L5.7027618,72.4483776 C5.0907618,73.3003776 5.6537618,74.6583776 6.6877618,74.8243776 L11.7767618,75.6523776 L12.3897618,76.7973776 L10.2497618,81.4903776 C9.8137618,82.4443776 10.6367618,83.6713776 11.6787618,83.6293776 L16.8427618,83.4483776 L17.6587618,84.4403776 L16.4737618,89.4733776 C16.2337618,90.4933776 17.2717618,91.5293776 18.2937618,91.2893776 L23.3247618,90.1043776 L24.3167618,90.9183776 L24.1367618,96.0853776 C24.0967618,97.1313776 25.3207618,97.9493776 26.2747618,97.5133776 L30.9687618,95.3743776 L32.1117618,95.9873776 L32.9417618,101.075378 C33.1097618,102.111378 34.4687618,102.671378 35.3187618,102.061378 L39.5007618,99.0483776 L40.7467618,99.4273776 L42.5517618,104.253378 C42.9177618,105.233378 44.3597618,105.522378 45.0737618,104.754378 L48.5967618,100.977378 L49.8777618,101.105378 L52.5977618,105.499378 C53.1457618,106.385378 54.6187618,106.387378 55.1687618,105.499378 L57.8887618,101.105378 L59.1687618,100.977378 L62.6907618,104.754378 C63.4047618,105.522378 64.8467618,105.233378 65.2127618,104.253378 L67.0177618,99.4273776 L68.2637618,99.0483776 L72.4467618,102.061378 C73.2967618,102.671378 74.6547618,102.109378 74.8227618,101.075378 L75.6527618,95.9873776 L76.7957618,95.3743776 L81.4897618,97.5133776 C82.4437618,97.9493776 83.6657618,97.1333776 83.6277618,96.0853776 L83.4477618,90.9183776 L84.4387618,90.1043776 L89.4697618,91.2893776 C90.4917618,91.5293776 91.5287618,90.4933776 91.2887618,89.4733776 L90.1037618,84.4403776 L90.9177618,83.4483776 L96.0837618,83.6293776 C97.1257618,83.6713776 97.9497618,82.4443776 97.5117618,81.4903776 L95.3727618,76.7973776 L95.9847618,75.6523776 L101.074762,74.8243776 C102.110762,74.6583776 102.672762,73.3003776 102.058762,72.4483776 L99.0477618,68.2653776 L99.4257618,67.0193776 L104.252762,65.2143776 C105.234762,64.8463776 105.521762,63.4063776 104.753762,62.6923776 L100.977762,59.1693776 L101.102762,57.8893776 L105.496762,55.1693776 C106.386762,54.6213776 106.387762,53.1483776 105.497762,52.5983776 L101.103762,49.8783776 Z M50.7730119,14.0747657 C50.7730119,12.3582647 52.1645109,10.9667657 53.8810119,10.9667657 C55.5975129,10.9667657 56.9890119,12.3582647 56.9890119,14.0747657 C56.9890119,15.7912667 55.5975129,17.1827657 53.8810119,17.1827657 C52.1645109,17.1827657 50.7730119,15.7912667 50.7730119,14.0747657 Z M26.7481816,85.247293 C26.7481816,83.530792 28.1396806,82.139293 29.8561816,82.139293 C31.5726827,82.139293 32.9641816,83.530792 32.9641816,85.247293 C32.9641816,86.9637941 31.5726827,88.355293 29.8561816,88.355293 C28.1396806,88.355293 26.7481816,86.9637941 26.7481816,85.247293 L26.7481816,85.247293 Z M13.3518402,41.8714545 C13.3518402,40.1549535 14.7433392,38.7634545 16.4598402,38.7634545 C18.1763412,38.7634545 19.5678402,40.1549535 19.5678402,41.8714545 C19.5678402,43.5879555 18.1763412,44.9794545 16.4598402,44.9794545 C14.7433392,44.9794545 13.3518402,43.5879555 13.3518402,41.8714545 L13.3518402,41.8714545 Z M87.6857618,42.2023776 C87.6857619,40.4858767 89.0772609,39.0943778 90.7937618,39.0943778 C92.5102627,39.0943778 93.9017617,40.4858767 93.9017618,42.2023776 C93.9017617,43.9188785 92.5102627,45.3103773 90.7937618,45.3103773 C89.0772609,45.3103773 87.6857619,43.9188785 87.6857618,42.2023776 L87.6857618,42.2023776 Z M73.6792907,85.4090407 C73.6792907,83.6925397 75.0707897,82.3010407 76.7872907,82.3010407 C78.5037917,82.3010407 79.8952907,83.6925397 79.8952907,85.4090407 C79.8952907,87.1255417 78.5037917,88.5170407 76.7872907,88.5170407 C75.0707897,88.5170407 73.6792907,87.1255417 73.6792907,85.4090407 L73.6792907,85.4090407 Z" id="Combined-Shape" fill="#000000" transform="translate(53.881012, 53.881253) rotate(-72.000000) translate(-53.881012, -53.881253) "/>
        </g>
    </g>
</svg>